<svg version="1.2" baseProfile="tiny-ps" xmlns="http://www.w3.org/2000/svg" viewBox="0 0 133 133" width="133" height="133">
	<title>Logo_TYPO3-svg</title>
	<style>
		tspan { white-space:pre }
		.shp0 { fill: #ff8700 } 
	</style>
	<g id="layer1">
		<path id="path5775" class="shp0" d="M91.03 85.91C89.53 86.36 88.33 86.51 86.77 86.51C73.93 86.51 55.07 41.64 55.07 26.71C55.07 21.2 56.37 19.37 58.21 17.8C42.49 19.63 23.63 25.4 17.6 32.73C16.29 34.57 15.51 37.45 15.51 41.11C15.51 64.43 40.4 117.35 57.95 117.35C66.07 117.35 79.77 103.99 91.03 85.91" />
		<path id="path5779" class="shp0" d="M82.84 16.23C99.08 16.23 115.32 18.85 115.32 28.02C115.32 46.62 103.53 69.15 97.51 69.15C86.77 69.15 73.41 39.28 73.41 24.35C73.41 17.54 76.03 16.23 82.84 16.23Z" />
	</g>
</svg>